<svg xmlns="http://www.w3.org/2000/svg" id="Layer_1" data-name="Layer 1" viewBox="0 0 1920 1920"><defs><style>.cls-1{fill:#b6ff00}</style></defs><path d="M0 0h1927.77v1927.77H0z"/><path d="m1119.23 562.23-1.76 2.36-80.39 1.13c-175.81 8.43-407.01 62.08-542.75 178.99-36.32 31.29-63.79 56.11-36.8 105.35 32.4 59.13 85.29 110 126.57 162.84 1.4 1.79 3.55 4.11 3.57 6.46-1.19 1.19-7.88-4.37-9.32-5.43-14.05-10.4-28.31-22.54-42.03-33.57-36.34-29.22-75.88-67.57-113.65-93.07-10.14-6.84-36.7-20.94-48.51-15.86-3.58 1.54-13.74 20.55-16.1 25.24-54.32 107.96-37.53 224.65 41.18 314.08 14.91 16.94 32.79 30.9 47.57 46.87 1.21 1.31 2.14.76 1.45 3.9-78.94-34.42-147.42-97.63-178.06-179.25-24.56-65.43-21.75-139.18 1.53-204.59 15.51-43.59 42.21-67.35 23.55-116.98-18.93-50.34-68.33-119.66-100.49-164.11-7.38-10.21-20.36-23.92-26.07-34.17-.91-1.63-2.05-2.74-1.58-4.9l118.74 96.82c32.42 25.57 63.57 52.49 107.4 53.24 27.68.48 37.73-12.94 59.35-25.81C626.21 578.41 814 540.96 1014.68 551.59c34.96 1.85 70.03 4.52 104.53 10.65Z" class="cls-1"/><path d="M962.88 1224.48c-16.69 16.96-47.87 16.39-68.34 7.16-19.88-8.96-33.06-27.06-46.29-43.49-49.33-61.29-103.22-130.1-148.15-194.41-17.64-25.24-38.98-57.68 4.56-71.79 37.4-12.13 111.37-.78 154.15-4.14 26.19-2.05 34.18-14.57 35.97-39.63 2.42-33.78-5.25-50.02-40.75-52.54-28.16-1.99-58.72 1.23-87.12.26-22.29 4.06-16.81 47.05-45.17 49.36-29.22 2.38-77.41-42.63-87.38-68.55-13.06-33.95 12.69-68.44 47.18-72.08 72.67 3.7 149.98-4.79 222.11.06 80.89 5.43 102.97 65.85 90 138.41-7.8 43.63-36.51 80.81-78.46 96.37-13.8 5.12-28.94 5.86-41.68 10.3-20.48 7.13-22.41 33.85-12.76 50.6 16.43 28.54 45.86 62.27 65.72 90.2 10.18 14.31 43.6 56.75 46.01 70.93 2.03 11.94-1.08 24.33-9.59 32.97Z" class="cls-1"/><path d="M1619.65 753.99c78.55 81.41 97.03 197.74 47.5 300.04-22.93 47.35-52.85 62.49-22.89 120.08 27.31 52.49 67.44 105.08 101.5 153.64 1 1.43 8.44 12.27 7.78 12.88-3.56.15-7.24-3.66-10-5.93-39.91-32.72-77.91-68.11-118.18-100.35-25.13-20.12-45.81-37.94-80.35-35.52-19.02 1.33-41.9 22-58.52 32.44-163.41 102.68-375.27 148.52-567.53 137.76-34.98-1.96-71.47-6.19-105.68-13.62-3.28-.71-29.47-6.75-29.49-8.28 1.7-2.66 2.67-1.32 4.71-1.21 222.71 12.44 478.43-34.95 659-171.37 10.53-7.95 34.09-24.79 41.94-33.66 18.38-20.76 2.49-51.01-10.14-69.95-26.65-39.95-60.54-81.88-90.77-119.49-2.06-2.56-20.61-22.59-18.87-24.24 4.41.08 8.22 4.07 11.68 6.61 32.18 23.64 62.7 51.23 94.06 76.03 21.15 16.73 48.52 42.28 74.94 47.91 20.2 4.3 20.51-.77 31.23-16.09 34.33-49.04 50.08-115.68 43.05-175.14-8.81-74.49-54.74-128.25-106.7-177.98-2.95-2.82-8.37-4.84-8.88-9.41 1.3-1.19 28.36 12.76 31.91 14.73 28.34 15.72 56.21 36.78 78.7 60.09Z" class="cls-1"/><path d="m1074.05 734.98 266.56-.2c19.41 2.55 33.92 23.2 24.12 41.64-5.93 11.16-32.85 46.36-43.14 52.54-6.55 3.94-15.76 6.74-23.37 7.34-49.71 3.94-104.54-3.03-154.79-.05-8.51 1.08-14.96 6.13-17.5 14.39-3.15 10.23-3.58 42.06 1.32 51.41 4.69 8.96 16.35 11.51 25.59 12.21 39.96 3 83.24-2.77 123.55.48 43.24 11.66 19.64 57.28-8.31 72.14-28.84 15.33-84.89 4.51-118.71 7.68-18.55 1.74-23.98 11.48-25.4 28.94-3.9 47.82 10.81 138.7-12.52 177.66-18.66 31.16-69.45 58.31-81.99 7.76L1029.4 786c1.88-29.51 15.3-45.61 44.65-51.03Z" class="cls-1"/></svg>